<?xml version="1.0" encoding="UTF-8"?>
<svg width="14px" height="15px" viewBox="0 0 14 15" version="1.1" xmlns="http://www.w3.org/2000/svg" xmlns:xlink="http://www.w3.org/1999/xlink">
    <!-- Generator: Sketch 51.2 (57519) - http://www.bohemiancoding.com/sketch -->
    <title>arrow_svg</title>
    <desc>Created with Sketch.</desc>
    <defs></defs>
    <g id="Page-1" stroke="none" stroke-width="1" fill="none" fill-rule="evenodd">
        <g id="arrow_svg" transform="translate(-108.000000, -163.000000)" fill="#FFFFFF">
            <path d="M121.964286,170.535714 C121.964286,170.877234 121.847285,171.164991 121.613281,171.398996 L115.4375,177.574777 C115.190847,177.808781 114.903089,177.925781 114.574219,177.925781 C114.251672,177.925781 113.967077,177.808781 113.720424,177.574777 L113.008929,176.863281 C112.7686,176.622953 112.648438,176.335195 112.648438,176 C112.648438,175.664805 112.7686,175.377047 113.008929,175.136719 L115.788504,172.357143 L109.109933,172.357143 C108.781062,172.357143 108.513859,172.238561 108.308315,172.001395 C108.102771,171.764229 108,171.478052 108,171.142857 L108,169.928571 C108,169.593376 108.102771,169.3072 108.308315,169.070033 C108.513859,168.832867 108.781062,168.714286 109.109933,168.714286 L115.788504,168.714286 L113.008929,165.925223 C112.7686,165.697544 112.648438,165.412948 112.648438,165.071429 C112.648438,164.729909 112.7686,164.445314 113.008929,164.217634 L113.720424,163.506138 C113.960753,163.26581 114.245348,163.145647 114.574219,163.145647 C114.909414,163.145647 115.197171,163.26581 115.4375,163.506138 L121.613281,169.68192 C121.847285,169.903275 121.964286,170.18787 121.964286,170.535714 Z"></path>
        </g>
    </g>
</svg>